<mxfile host="app.diagrams.net" modified="2023-11-29T12:52:57.920Z" agent="Mozilla/5.0 (Windows NT 10.0; Win64; x64) AppleWebKit/537.36 (KHTML, like Gecko) Chrome/119.0.0.0 Safari/537.36" version="22.1.4" etag="bPIFcimTBISJ2kQYt0kE" type="gitlab">
  <diagram name="Страница — 1" id="YZvD2Nir65rWtCh1F3qP">
    <mxGraphModel>
      <root>
        <mxCell id="0" />
        <mxCell id="1" parent="0" />
      </root>
    </mxGraphModel>
  </diagram>
</mxfile>
